<svg width="16" height="20" viewBox="0 0 16 20" fill="none" xmlns="http://www.w3.org/2000/svg">
<path d="M10.69 4.62982H3.68995L6.60995 1.70982C6.70368 1.61685 6.77808 1.50625 6.82885 1.38439C6.87962 1.26253 6.90575 1.13183 6.90575 0.999816C6.90575 0.867804 6.87962 0.737099 6.82885 0.61524C6.77808 0.49338 6.70368 0.382779 6.60995 0.289816C6.42259 0.103565 6.16914 -0.000976562 5.90495 -0.000976562C5.64077 -0.000976562 5.38732 0.103565 5.19995 0.289816L0.609955 4.91982C0.515325 5.01402 0.44052 5.12623 0.389955 5.24982C0.289937 5.49328 0.289937 5.76636 0.389955 6.00982C0.444312 6.13135 0.518678 6.2429 0.609955 6.33982L5.23995 10.9998C5.42459 11.1882 5.67619 11.2961 5.93995 11.2998C6.13858 11.301 6.33305 11.2429 6.49857 11.1331C6.66409 11.0233 6.79316 10.8667 6.86933 10.6833C6.94549 10.4999 6.9653 10.2979 6.92624 10.1031C6.88717 9.90839 6.79098 9.72969 6.64995 9.58982L3.72995 6.62982H10.73C11.5256 6.62982 12.2887 6.94589 12.8513 7.5085C13.4139 8.0711 13.73 8.83417 13.73 9.62982V18.9998C13.73 19.265 13.8353 19.5194 14.0228 19.7069C14.2104 19.8945 14.4647 19.9998 14.73 19.9998C14.9952 19.9998 15.2495 19.8945 15.4371 19.7069C15.6246 19.5194 15.73 19.265 15.73 18.9998V9.62982C15.73 8.96983 15.5993 8.31636 15.3456 7.70711C15.0918 7.09786 14.7199 6.54488 14.2514 6.08006C13.7828 5.61525 13.2269 5.24779 12.6157 4.99888C12.0044 4.74997 11.3499 4.62454 10.69 4.62982Z" fill="#0664F0"/>
</svg>
