<svg width="13" height="12" viewBox="0 0 13 12" fill="none" xmlns="http://www.w3.org/2000/svg">
<path d="M12.42 5.62122C12.3724 5.49847 12.301 5.38633 12.21 5.29122L7.21 0.291223C7.11676 0.197985 7.00607 0.124024 6.88425 0.0735636C6.76243 0.0231032 6.63186 -0.00286865 6.5 -0.00286865C6.2337 -0.00286865 5.9783 0.102919 5.79 0.291223C5.69676 0.384462 5.6228 0.495152 5.57234 0.616974C5.52188 0.738796 5.49591 0.869364 5.49591 1.00122C5.49591 1.26752 5.6017 1.52292 5.79 1.71122L9.09 5.00122H1.5C1.23478 5.00122 0.98043 5.10658 0.792893 5.29412C0.605357 5.48165 0.5 5.73601 0.5 6.00122C0.5 6.26644 0.605357 6.52079 0.792893 6.70833C0.98043 6.89587 1.23478 7.00122 1.5 7.00122H9.09L5.79 10.2912C5.69627 10.3842 5.62188 10.4948 5.57111 10.6166C5.52034 10.7385 5.4942 10.8692 5.4942 11.0012C5.4942 11.1332 5.52034 11.2639 5.57111 11.3858C5.62188 11.5077 5.69627 11.6183 5.79 11.7112C5.88296 11.8049 5.99356 11.8793 6.11542 11.9301C6.23728 11.9809 6.36799 12.007 6.5 12.007C6.63201 12.007 6.76272 11.9809 6.88458 11.9301C7.00644 11.8793 7.11704 11.8049 7.21 11.7112L12.21 6.71122C12.301 6.61612 12.3724 6.50397 12.42 6.38122C12.52 6.13776 12.52 5.86468 12.42 5.62122Z" fill="blue"/>
</svg>
