<svg width="17" height="18" viewBox="0 0 17 18" fill="none" xmlns="http://www.w3.org/2000/svg">
<path d="M10.1666 5.66675H11C11.221 5.66675 11.4329 5.57895 11.5892 5.42267C11.7455 5.26639 11.8333 5.05443 11.8333 4.83342C11.8333 4.6124 11.7455 4.40044 11.5892 4.24416C11.4329 4.08788 11.221 4.00008 11 4.00008H10.1666C9.94561 4.00008 9.73365 4.08788 9.57737 4.24416C9.42109 4.40044 9.33329 4.6124 9.33329 4.83342C9.33329 5.05443 9.42109 5.26639 9.57737 5.42267C9.73365 5.57895 9.94561 5.66675 10.1666 5.66675ZM10.1666 9.00008H11C11.221 9.00008 11.4329 8.91228 11.5892 8.756C11.7455 8.59972 11.8333 8.38776 11.8333 8.16675C11.8333 7.94573 11.7455 7.73377 11.5892 7.57749C11.4329 7.42121 11.221 7.33342 11 7.33342H10.1666C9.94561 7.33342 9.73365 7.42121 9.57737 7.57749C9.42109 7.73377 9.33329 7.94573 9.33329 8.16675C9.33329 8.38776 9.42109 8.59972 9.57737 8.756C9.73365 8.91228 9.94561 9.00008 10.1666 9.00008ZM5.99996 5.66675H6.83329C7.05431 5.66675 7.26627 5.57895 7.42255 5.42267C7.57883 5.26639 7.66663 5.05443 7.66663 4.83342C7.66663 4.6124 7.57883 4.40044 7.42255 4.24416C7.26627 4.08788 7.05431 4.00008 6.83329 4.00008H5.99996C5.77895 4.00008 5.56698 4.08788 5.4107 4.24416C5.25442 4.40044 5.16663 4.6124 5.16663 4.83342C5.16663 5.05443 5.25442 5.26639 5.4107 5.42267C5.56698 5.57895 5.77895 5.66675 5.99996 5.66675ZM5.99996 9.00008H6.83329C7.05431 9.00008 7.26627 8.91228 7.42255 8.756C7.57883 8.59972 7.66663 8.38776 7.66663 8.16675C7.66663 7.94573 7.57883 7.73377 7.42255 7.57749C7.26627 7.42121 7.05431 7.33342 6.83329 7.33342H5.99996C5.77895 7.33342 5.56698 7.42121 5.4107 7.57749C5.25442 7.73377 5.16663 7.94573 5.16663 8.16675C5.16663 8.38776 5.25442 8.59972 5.4107 8.756C5.56698 8.91228 5.77895 9.00008 5.99996 9.00008ZM16 15.6667H15.1666V1.50008C15.1666 1.27907 15.0788 1.06711 14.9225 0.910826C14.7663 0.754545 14.5543 0.666748 14.3333 0.666748H2.66663C2.44561 0.666748 2.23365 0.754545 2.07737 0.910826C1.92109 1.06711 1.83329 1.27907 1.83329 1.50008V15.6667H0.999959C0.778946 15.6667 0.566984 15.7545 0.410704 15.9108C0.254423 16.0671 0.166626 16.2791 0.166626 16.5001C0.166626 16.7211 0.254423 16.9331 0.410704 17.0893C0.566984 17.2456 0.778946 17.3334 0.999959 17.3334H16C16.221 17.3334 16.4329 17.2456 16.5892 17.0893C16.7455 16.9331 16.8333 16.7211 16.8333 16.5001C16.8333 16.2791 16.7455 16.0671 16.5892 15.9108C16.4329 15.7545 16.221 15.6667 16 15.6667ZM9.33329 15.6667H7.66663V12.3334H9.33329V15.6667ZM13.5 15.6667H11V11.5001C11 11.2791 10.9122 11.0671 10.7559 10.9108C10.5996 10.7545 10.3876 10.6667 10.1666 10.6667H6.83329C6.61228 10.6667 6.40032 10.7545 6.24404 10.9108C6.08776 11.0671 5.99996 11.2791 5.99996 11.5001V15.6667H3.49996V2.33341H13.5V15.6667Z" fill="black"/>
</svg>
