<svg width="17" height="17" viewBox="0 0 17 17" fill="none" xmlns="http://www.w3.org/2000/svg">
<path d="M12.5 7.7135C12.3232 7.7135 12.1537 7.78373 12.0286 7.90876C11.9036 8.03378 11.8334 8.20335 11.8334 8.38016V13.1668C11.8334 13.3436 11.7631 13.5132 11.6381 13.6382C11.5131 13.7633 11.3435 13.8335 11.1667 13.8335H3.83337C3.65656 13.8335 3.48699 13.7633 3.36197 13.6382C3.23695 13.5132 3.16671 13.3436 3.16671 13.1668V5.8335C3.16671 5.65669 3.23695 5.48712 3.36197 5.36209C3.48699 5.23707 3.65656 5.16683 3.83337 5.16683H8.62004C8.79685 5.16683 8.96642 5.09659 9.09145 4.97157C9.21647 4.84654 9.28671 4.67697 9.28671 4.50016C9.28671 4.32335 9.21647 4.15378 9.09145 4.02876C8.96642 3.90373 8.79685 3.8335 8.62004 3.8335H3.83337C3.30294 3.8335 2.79423 4.04421 2.41916 4.41928C2.04409 4.79436 1.83337 5.30306 1.83337 5.8335V13.1668C1.83337 13.6973 2.04409 14.206 2.41916 14.581C2.79423 14.9561 3.30294 15.1668 3.83337 15.1668H11.1667C11.6971 15.1668 12.2058 14.9561 12.5809 14.581C12.956 14.206 13.1667 13.6973 13.1667 13.1668V8.38016C13.1667 8.20335 13.0965 8.03378 12.9714 7.90876C12.8464 7.78373 12.6769 7.7135 12.5 7.7135ZM15.1134 2.24683C15.0457 2.08393 14.9163 1.95448 14.7534 1.88683C14.6732 1.85267 14.5872 1.83455 14.5 1.8335H10.5C10.3232 1.8335 10.1537 1.90373 10.0286 2.02876C9.90361 2.15378 9.83337 2.32335 9.83337 2.50016C9.83337 2.67697 9.90361 2.84654 10.0286 2.97157C10.1537 3.09659 10.3232 3.16683 10.5 3.16683H12.8934L6.02671 10.0268C5.96422 10.0888 5.91463 10.1625 5.88078 10.2438C5.84693 10.325 5.82951 10.4122 5.82951 10.5002C5.82951 10.5882 5.84693 10.6753 5.88078 10.7565C5.91463 10.8378 5.96422 10.9115 6.02671 10.9735C6.08868 11.036 6.16242 11.0856 6.24366 11.1194C6.3249 11.1533 6.41203 11.1707 6.50004 11.1707C6.58805 11.1707 6.67519 11.1533 6.75643 11.1194C6.83767 11.0856 6.9114 11.036 6.97337 10.9735L13.8334 4.10683V6.50016C13.8334 6.67697 13.9036 6.84654 14.0286 6.97157C14.1537 7.09659 14.3232 7.16683 14.5 7.16683C14.6769 7.16683 14.8464 7.09659 14.9714 6.97157C15.0965 6.84654 15.1667 6.67697 15.1667 6.50016V2.50016C15.1657 2.41304 15.1475 2.32698 15.1134 2.24683Z" fill="#002878"/>
</svg>
