<svg width="24" height="24" viewBox="0 0 24 24" fill="none" xmlns="http://www.w3.org/2000/svg">
<path d="M12 13.0012C11.7348 13.0012 11.4804 13.1065 11.2929 13.2941C11.1054 13.4816 11 13.736 11 14.0012V17.0012C11 17.2664 11.1054 17.5208 11.2929 17.7083C11.4804 17.8958 11.7348 18.0012 12 18.0012C12.2652 18.0012 12.5196 17.8958 12.7071 17.7083C12.8946 17.5208 13 17.2664 13 17.0012V14.0012C13 13.736 12.8946 13.4816 12.7071 13.2941C12.5196 13.1065 12.2652 13.0012 12 13.0012ZM17 9.00119V7.00119C17 5.67511 16.4732 4.40334 15.5355 3.46566C14.5979 2.52797 13.3261 2.00119 12 2.00119C10.6739 2.00119 9.40215 2.52797 8.46447 3.46566C7.52678 4.40334 7 5.67511 7 7.00119V9.00119C6.20435 9.00119 5.44129 9.31726 4.87868 9.87987C4.31607 10.4425 4 11.2055 4 12.0012V19.0012C4 19.7968 4.31607 20.5599 4.87868 21.1225C5.44129 21.6851 6.20435 22.0012 7 22.0012H17C17.7956 22.0012 18.5587 21.6851 19.1213 21.1225C19.6839 20.5599 20 19.7968 20 19.0012V12.0012C20 11.2055 19.6839 10.4425 19.1213 9.87987C18.5587 9.31726 17.7956 9.00119 17 9.00119ZM9 7.00119C9 6.20554 9.31607 5.44248 9.87868 4.87987C10.4413 4.31726 11.2044 4.00119 12 4.00119C12.7956 4.00119 13.5587 4.31726 14.1213 4.87987C14.6839 5.44248 15 6.20554 15 7.00119V9.00119H9V7.00119ZM18 19.0012C18 19.2664 17.8946 19.5208 17.7071 19.7083C17.5196 19.8958 17.2652 20.0012 17 20.0012H7C6.73478 20.0012 6.48043 19.8958 6.29289 19.7083C6.10536 19.5208 6 19.2664 6 19.0012V12.0012C6 11.736 6.10536 11.4816 6.29289 11.2941C6.48043 11.1065 6.73478 11.0012 7 11.0012H17C17.2652 11.0012 17.5196 11.1065 17.7071 11.2941C17.8946 11.4816 18 11.736 18 12.0012V19.0012Z" fill="#2E3192"/>
</svg>
