<svg width="24" height="24" viewBox="0 0 24 24" fill="none" xmlns="http://www.w3.org/2000/svg">
<path d="M19 4.00119H5C4.20435 4.00119 3.44129 4.31726 2.87868 4.87987C2.31607 5.44248 2 6.20554 2 7.00119V17.0012C2 17.7968 2.31607 18.5599 2.87868 19.1225C3.44129 19.6851 4.20435 20.0012 5 20.0012H19C19.7956 20.0012 20.5587 19.6851 21.1213 19.1225C21.6839 18.5599 22 17.7968 22 17.0012V7.00119C22 6.20554 21.6839 5.44248 21.1213 4.87987C20.5587 4.31726 19.7956 4.00119 19 4.00119ZM5 6.00119H19C19.2652 6.00119 19.5196 6.10655 19.7071 6.29408C19.8946 6.48162 20 6.73597 20 7.00119L12 11.8812L4 7.00119C4 6.73597 4.10536 6.48162 4.29289 6.29408C4.48043 6.10655 4.73478 6.00119 5 6.00119ZM20 17.0012C20 17.2664 19.8946 17.5208 19.7071 17.7083C19.5196 17.8958 19.2652 18.0012 19 18.0012H5C4.73478 18.0012 4.48043 17.8958 4.29289 17.7083C4.10536 17.5208 4 17.2664 4 17.0012V9.28119L11.48 13.8512C11.632 13.939 11.8045 13.9852 11.98 13.9852C12.1555 13.9852 12.328 13.939 12.48 13.8512L20 9.28119V17.0012Z" fill="#2E3192"/>
</svg>
