<svg width="19" height="20" viewBox="0 0 19 20" fill="none" xmlns="http://www.w3.org/2000/svg">
<path d="M17.4912 0.00195329C17.3599 0.00187836 17.2298 0.0276929 17.1084 0.0779211C16.9871 0.128149 16.8768 0.201806 16.7839 0.294679C16.6911 0.387553 16.6174 0.497822 16.5672 0.619181C16.517 0.740541 16.4911 0.87061 16.4912 1.00195V1.63867C15.6478 2.68438 14.5819 3.52887 13.371 4.11067C12.16 4.69248 10.8346 4.99696 9.49121 5.00195H3.49121C2.69583 5.00282 1.93327 5.31917 1.37085 5.88159C0.808429 6.44401 0.492079 7.20657 0.491211 8.00195V10.002C0.492079 10.7973 0.808429 11.5599 1.37085 12.1223C1.93327 12.6847 2.69583 13.0011 3.49121 13.002H3.975L1.57227 18.6084C1.50698 18.7604 1.48047 18.9263 1.49512 19.0911C1.50978 19.256 1.56514 19.4146 1.65624 19.5528C1.74734 19.6909 1.87133 19.8043 2.01706 19.8827C2.1628 19.9611 2.32572 20.0021 2.49121 20.002H6.49121C6.68696 20.0021 6.87843 19.9446 7.04182 19.8368C7.2052 19.729 7.33329 19.5755 7.41016 19.3955L10.1339 13.04C11.3646 13.1303 12.5636 13.472 13.657 14.0439C14.7505 14.6158 15.715 15.4058 16.4912 16.365V17.002C16.4912 17.2672 16.5966 17.5215 16.7841 17.7091C16.9716 17.8966 17.226 18.002 17.4912 18.002C17.7564 18.002 18.0108 17.8966 18.1983 17.7091C18.3859 17.5215 18.4912 17.2672 18.4912 17.002V1.00195C18.4913 0.87061 18.4655 0.74054 18.4152 0.61918C18.365 0.49782 18.2914 0.38755 18.1985 0.294676C18.1056 0.201803 17.9953 0.128146 17.874 0.0779185C17.7526 0.0276908 17.6226 0.00187705 17.4912 0.00195329ZM3.49121 11.002C3.22605 11.0018 2.9718 10.8964 2.7843 10.7089C2.5968 10.5214 2.49139 10.2671 2.49121 10.002V8.00195C2.49139 7.73679 2.59681 7.48254 2.7843 7.29505C2.9718 7.10755 3.22605 7.00213 3.49121 7.00195H4.49121V11.002H3.49121ZM5.83203 18.002H4.00781L6.15039 13.002H7.97461L5.83203 18.002ZM16.4912 13.5238C14.5195 11.8994 12.0459 11.0082 9.49121 11.0019H6.49121V7.0019H9.49121C12.0459 6.99537 14.5195 6.10406 16.4912 4.47956V13.5238Z" fill="#002878"/>
</svg>
