<svg width="21" height="20" viewBox="0 0 21 20" fill="none" xmlns="http://www.w3.org/2000/svg">
<path d="M9.79 13.29C9.747 13.3375 9.70693 13.3876 9.67 13.44C9.63216 13.4957 9.60189 13.5563 9.58 13.62C9.55117 13.6767 9.53095 13.7374 9.52001 13.8C9.5151 13.8666 9.5151 13.9334 9.52001 14C9.51663 14.1312 9.54402 14.2613 9.60001 14.38C9.64492 14.5041 9.71657 14.6168 9.80989 14.7101C9.90321 14.8034 10.0159 14.8751 10.14 14.92C10.2597 14.9729 10.3891 15.0002 10.52 15.0002C10.6509 15.0002 10.7803 14.9729 10.9 14.92C11.0241 14.8751 11.1368 14.8034 11.2301 14.7101C11.3234 14.6168 11.3951 14.5041 11.44 14.38C11.4844 14.2584 11.5048 14.1294 11.5 14C11.5008 13.8684 11.4755 13.7379 11.4258 13.6161C11.376 13.4943 11.3027 13.3834 11.21 13.29C11.117 13.1963 11.0064 13.1219 10.8846 13.0711C10.7627 13.0203 10.632 12.9942 10.5 12.9942C10.368 12.9942 10.2373 13.0203 10.1154 13.0711C9.99357 13.1219 9.88297 13.1963 9.79 13.29ZM10.5 0C8.52219 0 6.58879 0.58649 4.9443 1.6853C3.29981 2.78412 2.01809 4.3459 1.26121 6.17317C0.504333 8.00043 0.306299 10.0111 0.692152 11.9509C1.078 13.8907 2.03041 15.6725 3.42894 17.0711C4.82746 18.4696 6.60929 19.422 8.5491 19.8079C10.4889 20.1937 12.4996 19.9957 14.3268 19.2388C16.1541 18.4819 17.7159 17.2002 18.8147 15.5557C19.9135 13.9112 20.5 11.9778 20.5 10C20.5 8.68678 20.2413 7.38642 19.7388 6.17317C19.2363 4.95991 18.4997 3.85752 17.5711 2.92893C16.6425 2.00035 15.5401 1.26375 14.3268 0.761205C13.1136 0.258658 11.8132 0 10.5 0ZM10.5 18C8.91775 18 7.37104 17.5308 6.05544 16.6518C4.73985 15.7727 3.71447 14.5233 3.10897 13.0615C2.50347 11.5997 2.34504 9.99113 2.65372 8.43928C2.9624 6.88743 3.72433 5.46197 4.84315 4.34315C5.96197 3.22433 7.38743 2.4624 8.93928 2.15372C10.4911 1.84504 12.0997 2.00346 13.5615 2.60896C15.0233 3.21447 16.2727 4.23984 17.1518 5.55544C18.0308 6.87103 18.5 8.41775 18.5 10C18.5 12.1217 17.6572 14.1566 16.1569 15.6569C14.6566 17.1571 12.6217 18 10.5 18ZM10.5 5C9.97307 4.99966 9.45534 5.13812 8.99891 5.40144C8.54249 5.66476 8.16347 6.04366 7.9 6.5C7.82765 6.61382 7.77907 6.7411 7.75718 6.87418C7.73529 7.00726 7.74055 7.14339 7.77263 7.27439C7.80472 7.40538 7.86297 7.52854 7.94389 7.63643C8.02481 7.74433 8.12671 7.83475 8.24348 7.90224C8.36024 7.96974 8.48945 8.01292 8.62334 8.02918C8.75722 8.04544 8.89301 8.03445 9.02254 7.99688C9.15207 7.9593 9.27266 7.89591 9.37705 7.81052C9.48145 7.72513 9.56749 7.6195 9.63 7.5C9.71811 7.3474 9.84497 7.22078 9.99775 7.13298C10.1505 7.04518 10.3238 6.9993 10.5 7C10.7652 7 11.0196 7.10536 11.2071 7.29289C11.3946 7.48043 11.5 7.73478 11.5 8C11.5 8.26522 11.3946 8.51957 11.2071 8.70711C11.0196 8.89464 10.7652 9 10.5 9C10.2348 9 9.98043 9.10536 9.7929 9.29289C9.60536 9.48043 9.5 9.73478 9.5 10V11C9.5 11.2652 9.60536 11.5196 9.7929 11.7071C9.98043 11.8946 10.2348 12 10.5 12C10.7652 12 11.0196 11.8946 11.2071 11.7071C11.3946 11.5196 11.5 11.2652 11.5 11V10.82C12.1614 10.58 12.7174 10.1152 13.0708 9.50687C13.4242 8.89851 13.5525 8.18529 13.4334 7.49189C13.3143 6.79849 12.9552 6.16902 12.419 5.71352C11.8828 5.25801 11.2035 5.00546 10.5 5Z" fill="blue"/>
</svg>
