<svg width="25" height="25" viewBox="0 0 25 25" fill="none" xmlns="http://www.w3.org/2000/svg">
<path d="M23.101 2.56205C23.0559 2.39077 22.9661 2.23453 22.8409 2.10929C22.7156 1.98404 22.5594 1.89428 22.3881 1.84916C20.3368 1.31635 18.1766 1.37373 16.1564 2.01471C14.1362 2.65569 12.3381 3.85419 10.9692 5.47222L9.85426 6.79605L7.24946 6.16757C6.6162 5.9468 5.92444 5.96262 5.30194 6.21212C4.67943 6.46161 4.16823 6.92793 3.86274 7.52495L1.66255 11.4248C1.58546 11.5614 1.54158 11.7143 1.53447 11.871C1.52737 12.0277 1.55722 12.1838 1.62163 12.3268C1.68603 12.4699 1.78318 12.5957 1.90523 12.6943C2.02727 12.7928 2.17078 12.8612 2.32417 12.894L5.39692 13.5527C5.13663 14.3451 4.95077 15.16 4.84175 15.9868C4.82198 16.1387 4.83737 16.2931 4.88673 16.4382C4.93608 16.5832 5.01808 16.7149 5.12641 16.8232L8.22651 19.9233C8.31933 20.0162 8.42954 20.0899 8.55085 20.1402C8.67216 20.1905 8.80219 20.2163 8.93351 20.2163C8.96232 20.2163 8.99113 20.2149 9.02043 20.2124C9.86577 20.1364 10.7008 19.9722 11.512 19.7224L12.1557 22.7256C12.1886 22.879 12.2571 23.0224 12.3556 23.1444C12.4542 23.2664 12.58 23.3635 12.723 23.4279C12.866 23.4923 13.0221 23.5222 13.1788 23.5151C13.3355 23.5081 13.4883 23.4642 13.6249 23.3872L17.5302 21.1846C18.0798 20.8506 18.5092 20.3507 18.7563 19.7569C19.0034 19.1631 19.0556 18.5062 18.9052 17.8809L18.2365 15.1219L19.4735 13.9844C21.0976 12.6193 22.3007 10.8211 22.9429 8.799C23.5851 6.77692 23.6399 4.61407 23.101 2.56205ZM4.07222 11.2232L5.62837 8.46343C5.72502 8.27607 5.8897 8.13279 6.08862 8.06297C6.28754 7.99315 6.50564 8.00208 6.69819 8.08794L8.4156 8.50414L7.7656 9.27593C7.14936 10.0145 6.61637 10.8187 6.17628 11.674L4.07222 11.2232ZM16.5424 19.4454L13.8266 20.977L13.3971 18.9724C14.2677 18.5382 15.0789 17.9938 15.8105 17.3525L16.554 16.6689L16.9575 18.3335C17.0098 18.539 16.9981 18.7557 16.9239 18.9544C16.8497 19.1531 16.7166 19.3244 16.5424 19.4454ZM18.1567 12.48L14.4721 15.8663C13.0137 17.1276 11.2147 17.9293 9.30171 18.1705L6.89741 15.7662C7.22033 13.8482 8.04912 12.051 9.29829 10.5602L10.9766 8.5675C11.0046 8.53824 11.0307 8.50726 11.0548 8.47473L12.4897 6.77105C13.5507 5.51794 14.9252 4.56885 16.4729 4.02069C18.0206 3.47253 19.6861 3.34493 21.2993 3.65093C21.6127 5.26915 21.4864 6.94179 20.9337 8.49465C20.381 10.0475 19.422 11.4238 18.1567 12.48ZM17.2337 6.31629C16.937 6.31629 16.647 6.40426 16.4003 6.56908C16.1537 6.7339 15.9614 6.96817 15.8479 7.24226C15.7343 7.51635 15.7046 7.81795 15.7625 8.10892C15.8204 8.39989 15.9632 8.66717 16.173 8.87695C16.3828 9.08672 16.6501 9.22959 16.9411 9.28746C17.232 9.34534 17.5336 9.31564 17.8077 9.20211C18.0818 9.08857 18.3161 8.89632 18.4809 8.64964C18.6457 8.40297 18.7337 8.11296 18.7337 7.81629C18.7337 7.6193 18.6949 7.42423 18.6195 7.24223C18.5442 7.06024 18.4337 6.89487 18.2944 6.75558C18.1551 6.61628 17.9897 6.50579 17.8077 6.43042C17.6257 6.35504 17.4306 6.31625 17.2336 6.31627L17.2337 6.31629Z" fill="#0664F0"/>
</svg>
