<svg 
  width="46" 
  height="41" 
  viewBox="0 0 46 41" 
  fill="none" 
  xmlns="http://www.w3.org/2000/svg"
>
<path 
  d="M22.9999 29.0001C22.6044 29.0001 22.2177 29.1174 21.8888 29.3371C21.5599 29.5569 21.3036 29.8692 21.1522 
  30.2347C21.0008 30.6001 20.9612 31.0023 21.0384 31.3902C21.1155 31.7782 21.306 32.1346 21.5857 
  32.4143C21.8654 32.694 22.2218 32.8845 22.6098 32.9616C22.9977 33.0388 23.3999 32.9992 23.7653 32.8478C24.1308 
  32.6964 24.4431 32.4401 24.6629 32.1112C24.8826 31.7823 24.9999 31.3956 24.9999 31.0001C24.9999 30.4696 24.7892 
  29.9609 24.4141 29.5858C24.0391 29.2108 23.5304 29.0001 22.9999 29.0001ZM44.3399 31.9401L28.2399 3.94005C27.7195 
  3.00708 26.9595 2.22997 26.0383 1.68899C25.1171 1.14801 24.0682 0.862793 22.9999 0.862793C21.9316 0.862793 20.8827 
  1.14801 19.9615 1.68899C19.0404 2.22997 18.2803 3.00708 17.7599 3.94005L1.75994 31.9401C1.22153 32.8481 0.93222 
  33.8821 0.921224 34.9377C0.910228 35.9933 1.17793 37.0331 1.69731 37.9522C2.21668 38.8712 2.96934 39.637 3.8793 
  40.1721C4.78926 40.7073 5.82431 40.9928 6.87994 41.0001H39.1199C40.184 41.0105 41.2318 40.7378 42.1558 
  40.2099C43.0797 39.6819 43.8466 38.9178 44.3779 37.9957C44.9091 37.0736 45.1856 36.0269 45.1789 34.9627C45.1723 
  33.8986 44.8827 32.8554 44.3399 31.9401ZM40.8799 35.9401C40.7046 36.252 40.4489 36.5111 40.1393 36.6905C39.8297 
  36.8699 39.4777 36.963 39.1199 36.9601H6.87994C6.52216 36.963 6.17013 36.8699 5.86057 36.6905C5.55101 36.5111 
  5.29524 36.252 5.11994 35.9401C4.9444 35.636 4.85199 35.2911 4.85199 34.9401C4.85199 34.589 4.9444 34.2441 
  5.11994 33.9401L21.1199 5.94005C21.2878 5.61245 21.5428 5.33752 21.8568 5.14554C22.1709 4.95356 22.5318 4.85198 
  22.8999 4.85198C23.268 4.85198 23.629 4.95356 23.943 5.14554C24.2571 5.33752 24.5121 5.61245 24.6799 5.94005L40.7799 
  33.9401C40.9784 34.2397 41.0924 34.5873 41.11 34.9463C41.1276 35.3053 41.0481 35.6624 40.8799 35.9801V35.9401ZM22.9999 
  13.0001C22.4695 13.0001 21.9608 13.2108 21.5857 13.5858C21.2106 13.9609 20.9999 14.4696 20.9999 
  15.0001V23.0001C20.9999 23.5305 21.2106 24.0392 21.5857 24.4143C21.9608 24.7893 22.4695 25.0001 22.9999 
  25.0001C23.5304 25.0001 24.0391 24.7893 24.4141 24.4143C24.7892 24.0392 24.9999 23.5305 24.9999 
  23.0001V15.0001C24.9999 14.4696 24.7892 13.9609 24.4141 13.5858C24.0391 13.2108 23.5304 13.0001 22.9999 13.0001Z" 
  fill="#FF8B5D"/>
</svg>
