<svg width="112" height="16" viewBox="0 0 112 16" fill="none" xmlns="http://www.w3.org/2000/svg">
<path d="M0.84 15V0.999999H3.84V12.68H9.88V15H0.84ZM17.0967 15.24C15.7234 15.24 14.5167 14.9333 13.4767 14.32C12.4367 13.7067 11.6167 12.86 11.0167 11.78C10.4301 10.6867 10.1367 9.42667 10.1367 8C10.1367 6.57333 10.4301 5.32 11.0167 4.24C11.6167 3.14667 12.4367 2.29333 13.4767 1.68C14.5167 1.06667 15.7234 0.76 17.0967 0.76C18.4701 0.76 19.6834 1.06667 20.7367 1.68C21.7901 2.29333 22.6034 3.14667 23.1767 4.24C23.7634 5.32 24.0567 6.57333 24.0567 8C24.0567 9.42667 23.7634 10.6867 23.1767 11.78C22.6034 12.86 21.7901 13.7067 20.7367 14.32C19.6834 14.9333 18.4701 15.24 17.0967 15.24ZM17.0967 12.54C17.9101 12.54 18.6034 12.3533 19.1767 11.98C19.7634 11.6067 20.2167 11.0867 20.5367 10.42C20.8567 9.74 21.0167 8.93333 21.0167 8C21.0167 7.06667 20.8567 6.26667 20.5367 5.6C20.2167 4.92 19.7634 4.4 19.1767 4.04C18.6034 3.66667 17.9101 3.48 17.0967 3.48C16.3101 3.48 15.6234 3.66667 15.0367 4.04C14.4501 4.4 13.9967 4.92 13.6767 5.6C13.3567 6.26667 13.1967 7.06667 13.1967 8C13.1967 8.93333 13.3567 9.74 13.6767 10.42C13.9967 11.0867 14.4501 11.6067 15.0367 11.98C15.6234 12.3533 16.3101 12.54 17.0967 12.54ZM32.0794 15.24C30.746 15.24 29.5794 14.9467 28.5794 14.36C27.5927 13.76 26.826 12.9267 26.2794 11.86C25.7327 10.7933 25.4594 9.54667 25.4594 8.12C25.4594 6.68 25.7394 5.40667 26.2994 4.3C26.8727 3.19333 27.6927 2.32667 28.7594 1.7C29.826 1.07333 31.0994 0.76 32.5794 0.76C34.246 0.76 35.626 1.16 36.7194 1.96C37.826 2.76 38.5394 3.86667 38.8594 5.28H35.5194C35.3194 4.72 34.966 4.28667 34.4594 3.98C33.966 3.67333 33.3327 3.52 32.5594 3.52C31.6794 3.52 30.9394 3.71333 30.3394 4.1C29.7394 4.47333 29.286 5.00667 28.9794 5.7C28.6727 6.38 28.5194 7.18667 28.5194 8.12C28.5194 9.08 28.6727 9.89333 28.9794 10.56C29.286 11.2267 29.7327 11.7333 30.3194 12.08C30.906 12.4133 31.5994 12.58 32.3994 12.58C33.546 12.58 34.4127 12.28 34.9994 11.68C35.5994 11.08 35.966 10.3267 36.0994 9.42H32.8394V7.18H39.0994V15H36.3394L36.0994 13.38C35.8194 13.78 35.486 14.12 35.0994 14.4C34.726 14.68 34.286 14.8867 33.7794 15.02C33.286 15.1667 32.7194 15.24 32.0794 15.24ZM47.6834 15.24C46.3101 15.24 45.1034 14.9333 44.0634 14.32C43.0234 13.7067 42.2034 12.86 41.6034 11.78C41.0168 10.6867 40.7234 9.42667 40.7234 8C40.7234 6.57333 41.0168 5.32 41.6034 4.24C42.2034 3.14667 43.0234 2.29333 44.0634 1.68C45.1034 1.06667 46.3101 0.76 47.6834 0.76C49.0568 0.76 50.2701 1.06667 51.3234 1.68C52.3768 2.29333 53.1901 3.14667 53.7634 4.24C54.3501 5.32 54.6434 6.57333 54.6434 8C54.6434 9.42667 54.3501 10.6867 53.7634 11.78C53.1901 12.86 52.3768 13.7067 51.3234 14.32C50.2701 14.9333 49.0568 15.24 47.6834 15.24ZM47.6834 12.54C48.4968 12.54 49.1901 12.3533 49.7634 11.98C50.3501 11.6067 50.8034 11.0867 51.1234 10.42C51.4434 9.74 51.6034 8.93333 51.6034 8C51.6034 7.06667 51.4434 6.26667 51.1234 5.6C50.8034 4.92 50.3501 4.4 49.7634 4.04C49.1901 3.66667 48.4968 3.48 47.6834 3.48C46.8968 3.48 46.2101 3.66667 45.6234 4.04C45.0368 4.4 44.5834 4.92 44.2634 5.6C43.9434 6.26667 43.7834 7.06667 43.7834 8C43.7834 8.93333 43.9434 9.74 44.2634 10.42C44.5834 11.0867 45.0368 11.6067 45.6234 11.98C46.2101 12.3533 46.8968 12.54 47.6834 12.54ZM60.5978 15V0.999999H63.5978L69.7378 10.2V0.999999H72.7378V15H69.7378L63.5978 5.84V15H60.5978ZM75.022 15V0.999999H84.402V3.42H78.022V6.72H83.802V9.04H78.022V12.58H84.402V15H75.022ZM85.4398 15L90.5398 0.999999H93.9798L99.0798 15H95.8998L92.2398 4.38L88.5798 15H85.4398ZM87.6598 11.94L88.4598 9.62H95.7998L96.5798 11.94H87.6598ZM100.413 15V0.999999H105.853C106.987 0.999999 107.927 1.2 108.673 1.6C109.433 1.98667 109.993 2.50667 110.353 3.16C110.727 3.81333 110.913 4.54 110.913 5.34C110.913 6.08667 110.733 6.78667 110.373 7.44C110.027 8.09333 109.48 8.62 108.733 9.02C107.987 9.42 107.02 9.62 105.833 9.62H103.413V15H100.413ZM107.633 15L104.813 8.88H108.033L111.033 15H107.633ZM103.413 7.46H105.673C106.42 7.46 106.967 7.28 107.313 6.92C107.673 6.56 107.853 6.07333 107.853 5.46C107.853 4.86 107.673 4.38667 107.313 4.04C106.967 3.68 106.42 3.5 105.673 3.5H103.413V7.46Z" fill="black"/>
</svg>
